<svg id="Layer_1" data-name="Layer 1" xmlns="http://www.w3.org/2000/svg" viewBox="0 0 202.52 82.89">
  <path fill="#2c3640" d="M1.49,61.41V39.09H4.28q2.53,11,7.45,16.91T23.3,61.92A9.15,9.15,0,0,0,30,59.52,8.72,8.72,0,0,0,32.44,53q0-6.39-12.28-11.76l-1.58-.69L17,39.77Q8.66,36.26,5.44,32.56a16.18,16.18,0,0,1-3.16-5.28,18.53,18.53,0,0,1-1-6.31A18.22,18.22,0,0,1,7.72,6.54Q14.2.93,24.41.92a40.8,40.8,0,0,1,7.5.77A84.86,84.86,0,0,1,41.16,4.1V22.17H38.75q-2.36-9-6.09-13.46a11.32,11.32,0,0,0-8.93-4.44,9.08,9.08,0,0,0-6.46,2.34,7.81,7.81,0,0,0-2.51,6,8.5,8.5,0,0,0,2.1,5.71,16.19,16.19,0,0,0,6.35,4.16q2.14.86,5.93,2.28,6.95,2.57,8.93,3.95a22.6,22.6,0,0,1,7,7,17.4,17.4,0,0,1,2.12,8.8q0,9.57-6.67,15.15T22.31,65.27a57.93,57.93,0,0,1-10.47-1A60.24,60.24,0,0,1,1.49,61.41Z"/>
  <path fill="#2c3640" d="M69.26,54.71c0,2.21.39,3.79,1.18,4.75A5,5,0,0,0,74.37,61v2.45H47.19V61h.26a5.07,5.07,0,0,0,4.06-1.44q1.22-1.44,1.22-4.83V38.53a6.93,6.93,0,0,0-.51-3.05,5.63,5.63,0,0,0-1.94-1.93l-5.36-3.78q5.32-1.93,11-4.59T67.76,19v7.3a16.27,16.27,0,0,1,13.73-6.87q7,0,10.5,3.58T95.45,34V54.71c0,2.26.4,3.87,1.22,4.83A5.07,5.07,0,0,0,100.73,61H101v2.45H78.92v-29q0-4.63-1.14-6.44a4.2,4.2,0,0,0-3.84-1.81A3.84,3.84,0,0,0,70.33,28c-.71,1.25-1.07,3.37-1.07,6.38Z"/>
  <path fill="#2c3640" d="M128.84,57.89A23.34,23.34,0,0,1,122,63.45a16.57,16.57,0,0,1-7.58,1.82,12.23,12.23,0,0,1-8.56-3,9.88,9.88,0,0,1-3.29-7.66q0-5.55,5-9.64T128,34.92V31.87q0-4.8-1.22-6.89a4.32,4.32,0,0,0-4-2.08A5.43,5.43,0,0,0,119,24.25a4.35,4.35,0,0,0-1.51,3.37c0,.72,0,1.56.09,2.51s.08,1.57.08,1.83a7.18,7.18,0,0,1-1.73,5,5.93,5.93,0,0,1-4.62,1.91,5.59,5.59,0,0,1-4.21-1.65,6,6,0,0,1-1.58-4.36q0-5.83,5.53-9.68t14.26-3.84a29.54,29.54,0,0,1,8.86,1.25,16.76,16.76,0,0,1,6.51,3.6,10.78,10.78,0,0,1,2.91,4.51,26,26,0,0,1,.86,7.77V48.74a23.14,23.14,0,0,0,.8,7.26c.53,1.43,1.38,2.15,2.55,2.15a1.91,1.91,0,0,0,.77-.17,4.09,4.09,0,0,0,.82-.52v2.79A11.41,11.41,0,0,1,145,63.64a14.84,14.84,0,0,1-6,1.2,10.88,10.88,0,0,1-6.33-1.76A10.11,10.11,0,0,1,128.84,57.89ZM128,38.1A11.74,11.74,0,0,0,122.14,43a15.38,15.38,0,0,0-2,8.14,7.76,7.76,0,0,0,1.1,4.38,3.32,3.32,0,0,0,2.85,1.63,3.1,3.1,0,0,0,3.11-1.81q.84-1.8.84-9Z"/>
  <path fill="#2c3640" d="M154.79,38.53a6.75,6.75,0,0,0-.53-3.05,5.81,5.81,0,0,0-2-1.93l-5.45-3.78q5.44-2,11.18-4.64T169.82,19v7.3a16.78,16.78,0,0,1,5.51-5.18,14,14,0,0,1,6.89-1.69A17,17,0,0,1,196,25.86q5.31,6.41,5.3,16.66,0,10.69-6.22,16.76t-17.17,6.08c-.86,0-1.84,0-2.94-.13s-2.34-.21-3.72-.39v8.42c0,2.26.43,3.87,1.27,4.83s2.27,1.44,4.27,1.44h1.29V82H147.84V79.53h1.33c2,0,3.44-.48,4.31-1.44s1.31-2.57,1.31-4.83ZM177.2,62.27a4.69,4.69,0,0,0,4.68-3.39q1.29-3.39,1.29-14.9T181.88,29.1a4.7,4.7,0,0,0-4.68-3.41,4.75,4.75,0,0,0-4.74,3.41q-1.32,3.42-1.31,14.88t1.31,14.9A4.75,4.75,0,0,0,177.2,62.27Z"/>
</svg>