<svg xmlns="http://www.w3.org/2000/svg" width="109.021" height="31.015" viewBox="0 0 109.021 31.015">
  <g id="Group_331" data-name="Group 331" transform="translate(-41 -37)">
    <path id="Path_1" data-name="Path 1" d="M0,0V3.89H3.816V31.007l1.993-.021H7.83V3.89h3.828V0Z" transform="translate(41 37)" fill="#2c3640"></path>
    <path id="Path_2" data-name="Path 2" d="M35.7,17.459H32.4V30.987H28.389V0H32.4V13.569h3.3V0h4.014V30.987H35.7Z" transform="translate(35.06 37)" fill="#2c3640"></path>
    <path id="Path_3" data-name="Path 3" d="M82.864,17.414h.041l-.17-6.379V0h3.808V30.987H82.951L78.763,13.569h-.041l.17,6.383V30.987h-3.8V0H78.68Z" transform="translate(25.289 37)" fill="#2c3640"></path>
    <path id="Path_4" data-name="Path 4" d="M111.683,12.23l4.13,18.823h-4.089l-3.03-14.065L107.218,21.2v9.852h-4V.183h4V13.661L111.348.183h3.874Z" transform="translate(19.403 36.962)" fill="#2c3640"></path>
    <rect id="Rectangle_1" data-name="Rectangle 1" width="4.014" height="22.677" transform="translate(146.007 37.095)" fill="#2c3640"></rect>
    <rect id="Rectangle_2" data-name="Rectangle 2" width="4.014" height="4.014" transform="translate(146.007 64.001)" fill="#2c3640"></rect>
  </g>
</svg>